<svg width="21" height="21" viewBox="0 0 21 21" fill="none" xmlns="http://www.w3.org/2000/svg">
<path d="M6.2 4.66667C6.25 5.40833 6.375 6.13333 6.575 6.825L5.575 7.825C5.23333 6.825 5.01667 5.76667 4.94167 4.66667H6.2ZM14.4167 14.6833C15.125 14.8833 15.85 15.0083 16.5833 15.0583V16.3C15.4833 16.225 14.425 16.0083 13.4167 15.675L14.4167 14.6833ZM7 3H4.08333C3.625 3 3.25 3.375 3.25 3.83333C3.25 11.6583 9.59167 18 17.4167 18C17.875 18 18.25 17.625 18.25 17.1667V14.2583C18.25 13.8 17.875 13.425 17.4167 13.425C16.3833 13.425 15.375 13.2583 14.4417 12.95C14.3583 12.9167 14.2667 12.9083 14.1833 12.9083C13.9667 12.9083 13.7583 12.9917 13.5917 13.15L11.7583 14.9833C9.4 13.775 7.46667 11.85 6.26667 9.49167L8.1 7.65833C8.33333 7.425 8.4 7.1 8.30833 6.80833C8 5.875 7.83333 4.875 7.83333 3.83333C7.83333 3.375 7.45833 3 7 3Z" fill="white"/>
</svg>
