<svg width="21" height="21" viewBox="0 0 21 21" fill="none" xmlns="http://www.w3.org/2000/svg">
<g clip-path="url(#clip0_336_2294)">
<path d="M14.9167 2.1665H6.58341C4.28223 2.1665 2.41675 4.03198 2.41675 6.33317V14.6665C2.41675 16.9677 4.28223 18.8332 6.58341 18.8332H14.9167C17.2179 18.8332 19.0834 16.9677 19.0834 14.6665V6.33317C19.0834 4.03198 17.2179 2.1665 14.9167 2.1665Z" stroke="white" stroke-width="2" stroke-linecap="round" stroke-linejoin="round"/>
<path d="M14.0833 9.97476C14.1861 10.6683 14.0676 11.3766 13.7447 11.9989C13.4218 12.6213 12.9109 13.1259 12.2846 13.4412C11.6583 13.7564 10.9486 13.8661 10.2564 13.7547C9.56419 13.6433 8.92472 13.3165 8.42895 12.8207C7.93318 12.325 7.60636 11.6855 7.49497 10.9933C7.38359 10.3011 7.49331 9.59134 7.80852 8.96507C8.12374 8.33881 8.62841 7.82788 9.25074 7.50496C9.87307 7.18205 10.5814 7.06359 11.2749 7.16643C11.9824 7.27133 12.6373 7.60098 13.143 8.10669C13.6487 8.61239 13.9783 9.26733 14.0833 9.97476Z" stroke="white" stroke-width="2" stroke-linecap="round" stroke-linejoin="round"/>
<path d="M15.3333 5.9165H15.3416" stroke="white" stroke-width="2" stroke-linecap="round" stroke-linejoin="round"/>
</g>
<defs>
<clipPath id="clip0_336_2294">
<rect width="20" height="20" fill="white" transform="translate(0.75 0.5)"/>
</clipPath>
</defs>
</svg>
