<svg width="232" height="60" viewBox="0 0 232 60" fill="none" xmlns="http://www.w3.org/2000/svg">
<rect width="231.765" height="60" fill="#6953DA"/>
<path d="M49.0771 24.4365C49.0771 32.3644 54.9181 36.9229 62.2076 36.9229C69.4971 36.9229 75.3848 32.3644 75.3848 24.4365C75.3848 15.4186 69.4971 11.9998 62.2076 11.9998C54.9181 11.9998 49.0771 15.4186 49.0771 24.4365ZM62.2076 28.4995C60.6189 28.4995 59.3105 26.7653 59.3105 24.4365C59.3105 22.0582 60.6189 20.3735 62.2076 20.3735C63.8431 20.3735 65.1047 22.0582 65.1047 24.4365C65.1047 26.7653 63.8431 28.4995 62.2076 28.4995Z" fill="#D0EEF9"/>
<path d="M20 24.4365C20 32.3644 25.9947 36.9229 33.476 36.9229C40.9574 36.9229 47 32.3644 47 24.4365C47 15.4186 40.9574 11.9998 33.476 11.9998C25.9947 11.9998 20 15.4186 20 24.4365ZM33.476 28.4995C31.8455 28.4995 30.5027 26.7653 30.5027 24.4365C30.5027 22.0582 31.8455 20.3735 33.476 20.3735C35.1545 20.3735 36.4494 22.0582 36.4494 24.4365C36.4494 26.7653 35.1545 28.4995 33.476 28.4995Z" fill="#D0EEF9"/>
<path d="M47.6923 48C47.9627 42.9158 54.0063 38.8363 61.5385 38.6538C54.0063 38.4714 47.9627 34.3919 47.6923 29.3077C47.422 34.3919 41.3784 38.4714 33.8462 38.6538C41.3784 38.8363 47.422 42.9158 47.6923 48Z" fill="#D0EEF9"/>
<path d="M199.702 29.7662C199.702 26.3379 202.38 24.3667 205.723 24.3667C209.066 24.3667 211.765 26.3379 211.765 29.7662C211.765 33.6658 209.066 35.1442 205.723 35.1442C202.38 35.1442 199.702 33.6658 199.702 29.7662ZM205.723 28.0092C204.994 28.0092 204.395 28.7591 204.395 29.7662C204.395 30.7946 204.994 31.5232 205.723 31.5232C206.473 31.5232 207.051 30.7946 207.051 29.7662C207.051 28.7591 206.473 28.0092 205.723 28.0092Z" fill="#D0EEF9"/>
<path d="M194.164 21.8381C194.164 20.7667 195.171 19.9097 196.435 19.9097C197.699 19.9097 198.706 20.7667 198.706 21.8381C198.706 22.9094 197.699 23.7664 196.435 23.7664C195.171 23.7664 194.164 22.9094 194.164 21.8381ZM194.271 35.1011V24.4092H198.557V35.1011H194.271Z" fill="#D0EEF9"/>
<path d="M188.434 24.0451V19.0527H192.72V35.1012H188.434V34.437C188.456 33.9656 188.52 33.4728 188.649 33.0228L188.606 33.0014C188.156 34.4798 186.956 35.3154 185.37 35.3154C182.885 35.3154 180.957 33.1728 180.957 30.8802V28.6518C180.957 26.3806 182.885 24.1951 186.249 24.1951C187.384 24.1951 188.134 24.3879 188.713 25.4807L188.756 25.4593C188.542 25.0736 188.434 24.4951 188.434 24.0451ZM188.434 31.2658V28.2447C187.899 27.859 187.599 27.6233 186.742 27.6233C186.035 27.6233 185.22 28.159 185.22 29.1875V30.3445C185.22 31.373 186.035 31.8872 186.742 31.8872C187.599 31.8872 187.899 31.6515 188.434 31.2658Z" fill="#D0EEF9"/>
<path d="M174.903 34.2654C174.132 34.951 173.103 35.1653 172.096 35.1653C170.125 35.1653 168.261 34.3082 168.261 32.0799V24.4092H172.525V30.0658C172.525 31.2871 173.146 31.7156 174.046 31.7156C174.753 31.7156 175.117 31.6299 175.439 31.4156V24.4092H179.724V35.101H175.439V34.4582C175.439 34.0083 175.524 33.4512 175.674 33.0441L175.631 33.0226C175.481 33.4297 175.224 33.9654 174.903 34.2654Z" fill="#D0EEF9"/>
<path d="M163.234 21.4955V23.5096C163.234 23.9382 163.084 24.4738 162.762 24.7738L162.805 24.8167C163.105 24.4953 163.641 24.3453 164.091 24.3453H166.919V27.1307H163.234V30.2161C163.234 31.4374 164.177 31.4589 164.669 31.4589C165.269 31.4589 165.826 31.2018 166.726 30.8161L167.112 34.5014C166.019 34.8228 165.098 35.2514 163.641 35.3156C161.263 35.4228 158.948 34.48 158.948 31.0303V27.1307H157.577V24.3453H158.948V21.4741L163.234 21.4955Z" fill="#D0EEF9"/>
<path d="M155.085 27.0018C156.178 27.5161 157.228 28.566 157.228 30.3872C157.228 35.0154 152.578 35.3367 150.993 35.3367C147.821 35.3367 144.736 34.0083 143.708 32.9584L145.015 29.5516C145.464 29.9801 148.528 31.5443 150.457 31.5443C150.628 31.5443 152.985 31.8871 152.985 30.6015C152.985 29.2516 148.378 29.3159 146.064 28.1374C145.229 27.7303 144.05 26.7019 144.05 24.8806C144.05 20.1239 148.807 19.9097 150.114 19.9097C153.735 19.9097 156.263 21.4952 157.185 22.3309L155.856 25.6948C155.364 25.2663 152.257 23.7022 150.457 23.7022C150.285 23.7022 148.314 23.3593 148.314 24.6449C148.314 25.9091 153.907 26.4448 155.085 27.0018Z" fill="#D0EEF9"/>
<path d="M135.997 24.4094L133.104 28.0947C132.825 28.4375 132.397 28.7375 131.947 28.6947L131.926 28.7375C132.376 28.7804 132.761 29.1232 132.975 29.5303L135.997 35.1012H131.711L128.69 29.616V35.1012H124.426V19.0527H128.69V28.1804L131.711 24.4094H135.997Z" fill="#D0EEF9"/>
<path d="M111.234 29.7662C111.234 26.3379 113.912 24.3667 117.255 24.3667C120.597 24.3667 123.297 26.3379 123.297 29.7662C123.297 33.6658 120.597 35.1442 117.255 35.1442C113.912 35.1442 111.234 33.6658 111.234 29.7662ZM117.255 28.0092C116.526 28.0092 115.926 28.7591 115.926 29.7662C115.926 30.7946 116.526 31.5232 117.255 31.5232C118.005 31.5232 118.583 30.7946 118.583 29.7662C118.583 28.7591 118.005 28.0092 117.255 28.0092Z" fill="#D0EEF9"/>
<path d="M98.4702 29.7662C98.4702 26.3379 101.149 24.3667 104.491 24.3667C107.834 24.3667 110.533 26.3379 110.533 29.7662C110.533 33.6658 107.834 35.1442 104.491 35.1442C101.149 35.1442 98.4702 33.6658 98.4702 29.7662ZM104.491 28.0092C103.763 28.0092 103.163 28.7591 103.163 29.7662C103.163 30.7946 103.763 31.5232 104.491 31.5232C105.241 31.5232 105.82 30.7946 105.82 29.7662C105.82 28.7591 105.241 28.0092 104.491 28.0092Z" fill="#D0EEF9"/>
<path d="M92.9574 20.167H97.2427V35.1655H92.9574L88.7578 28.1162C88.5221 27.7305 88.2865 27.1949 88.1793 26.7449L88.1365 26.7664C88.265 27.2377 88.3293 27.7305 88.3293 28.2234V35.1655H84.0654V20.167H88.3293L92.5289 27.2163C92.7646 27.6448 92.9574 28.1162 93.1074 28.5876L93.1503 28.5662C93.0217 28.1377 92.9574 27.5591 92.9574 27.1092V20.167Z" fill="#D0EEF9"/>
</svg>
