<svg width="108" height="32" viewBox="0 0 108 32" fill="none" xmlns="http://www.w3.org/2000/svg">
<path d="M97.9994 16.7836C98.9144 16.7836 99.6987 17.4792 100.134 18.2618L107.498 32H98.7837L91.6816 18.7835H90.6795V32H82.0088V1.5238H90.6795V14.8707H91.5945L98.7837 1.5238H107.498L100.134 15.262C99.6987 16.0446 98.9144 16.6967 97.9994 16.6967V16.7836Z" fill="#D3FE3D"/>
<path d="M55.1343 10.922C55.1343 17.8842 60.5474 21.8875 67.3031 21.8875C74.0587 21.8875 79.5152 17.8842 79.5152 10.922C79.5152 3.00246 74.0587 3.09473e-06 67.3031 3.09473e-06C60.5474 3.09473e-06 55.1343 3.00246 55.1343 10.922ZM67.3031 14.4901C65.8307 14.4901 64.6182 12.9671 64.6182 10.922C64.6182 8.83331 65.8307 7.35384 67.3031 7.35384C68.8188 7.35384 69.988 8.83331 69.988 10.922C69.988 12.9671 68.8188 14.4901 67.3031 14.4901Z" fill="#D3FE3D"/>
<path d="M29.2295 10.922C29.2295 17.8842 34.6427 21.8875 41.3983 21.8875C48.154 21.8875 53.6104 17.8842 53.6104 10.922C53.6104 3.00246 48.154 3.09473e-06 41.3983 3.09473e-06C34.6427 3.09473e-06 29.2295 3.00246 29.2295 10.922ZM41.3983 14.4901C39.9259 14.4901 38.7134 12.9671 38.7134 10.922C38.7134 8.83331 39.9259 7.35384 41.3983 7.35384C42.914 7.35384 44.0833 8.83331 44.0833 10.922C44.0833 12.9671 42.914 14.4901 41.3983 14.4901Z" fill="#D3FE3D"/>
<path d="M18.0413 1.66235H26.7359V32H18.0413L9.5206 17.7413C9.0424 16.9612 8.56419 15.8777 8.34683 14.9676L8.25988 15.0109C8.52072 15.9644 8.65114 16.9612 8.65114 17.958V32H0V1.66235H8.65114L17.1719 15.9211C17.6501 16.7878 18.0413 17.7413 18.3456 18.6948L18.4326 18.6514C18.1717 17.7847 18.0413 16.6145 18.0413 15.7044V1.66235Z" fill="#D3FE3D"/>
<path d="M54.2336 31.8615C54.4784 27.34 59.9504 23.712 66.7704 23.5498C59.9504 23.3875 54.4784 19.7596 54.2336 15.2381C53.9888 19.7596 48.5167 23.3875 41.6968 23.5498C48.5167 23.712 53.9888 27.34 54.2336 31.8615Z" fill="#D3FE3D"/>
<path d="M45.978 27.9357H47.1737V31.7401H46.0867V31.5391C46.0921 31.4086 46.103 31.2836 46.1248 31.1586H46.1139C46.0921 31.2673 46.0595 31.4249 45.9943 31.5173C45.8476 31.7238 45.5867 31.7836 45.2606 31.7891C44.5812 31.7945 44.0269 31.5336 44.0269 30.4629V27.9357H45.2171V30.289C45.2171 30.7075 45.391 30.8705 45.5976 30.8705C45.815 30.8705 45.978 30.7184 45.978 30.2727V27.9357Z" fill="white"/>
<path d="M37.8604 27.9357H41.1159V29.0227H40.2409C40.1322 29.0227 39.9963 28.9846 39.9148 28.9031L39.9093 28.914C39.9909 28.9901 40.0289 29.1259 40.0289 29.2401V31.7401H38.9419V29.2401C38.9419 29.1259 38.98 28.9901 39.056 28.914L39.0506 28.9031C38.9691 28.9846 38.8386 29.0227 38.7245 29.0227H37.8604V27.9357Z" fill="white"/>
<path d="M34.4851 29.6748C34.7623 29.8053 35.0286 30.0716 35.0286 30.5336C35.0286 31.7075 33.8492 31.789 33.447 31.789C32.6426 31.789 31.86 31.4521 31.5991 31.1857L31.9307 30.3216C32.0448 30.4303 32.822 30.827 33.3111 30.827C33.3546 30.827 33.9525 30.914 33.9525 30.5879C33.9525 30.2455 32.7839 30.2618 32.197 29.9629C31.985 29.8596 31.6861 29.5987 31.6861 29.1368C31.6861 27.9302 32.8926 27.8759 33.2242 27.8759C34.1427 27.8759 34.784 28.278 35.0177 28.49L34.6807 29.3433C34.5557 29.2346 33.7677 28.8378 33.3111 28.8378C33.2677 28.8378 32.7676 28.7509 32.7676 29.077C32.7676 29.3976 34.1862 29.5335 34.4851 29.6748Z" fill="white"/>
<path d="M74.5544 27.9194C75.5109 27.9194 76.2827 28.2401 76.3207 29.8543C76.2827 31.4685 75.5109 31.7891 74.5544 31.7891C73.5924 31.7891 72.8206 31.4685 72.7935 29.8543C72.8206 28.2401 73.5924 27.9194 74.5544 27.9194ZM74.5544 30.8706C74.875 30.8706 75.1251 30.6423 75.1251 29.8271C75.1251 29.0173 74.875 28.8053 74.5544 28.8053C74.2392 28.8053 73.9837 29.0227 73.9837 29.8543C73.9837 30.6478 74.2392 30.8706 74.5544 30.8706Z" fill="white"/>
<path d="M69.7539 31.7401H68.6724V27.9357H69.7539V31.7401Z" fill="white"/>
<path d="M65.3501 28.5389C65.5675 28.9303 65.6327 29.4194 65.6327 29.8107V29.8542C65.6327 30.5553 65.3772 31.751 64.1055 31.7401H62.6108V27.9357H64.1435C64.7468 27.9357 65.1272 28.1531 65.3501 28.5389ZM64.5457 29.8596V29.8107C64.5457 29.1151 64.5457 28.8596 63.8609 28.8596H63.6924V30.5988C63.6924 30.7129 63.6544 30.8488 63.5728 30.9249L63.5837 30.9358C63.6598 30.8542 63.7957 30.8162 63.9098 30.8162C64.5457 30.8053 64.5457 30.539 64.5457 29.8596Z" fill="white"/>
</svg>
