<svg width="226" height="68" viewBox="0 0 226 68" fill="none" xmlns="http://www.w3.org/2000/svg">
<path d="M205.575 35.2071C207.494 35.2071 209.139 36.6663 210.053 38.3079L225.5 67.1267H207.22L192.322 39.4022H190.22V67.1267H172.031V3.19629H190.22V31.1943H192.139L207.22 3.19629H225.5L210.053 32.0151C209.139 33.6567 207.494 35.0247 205.575 35.0247V35.2071Z" fill="white"/>
<path d="M115.656 22.9111C115.656 37.5158 127.011 45.9136 141.183 45.9136C155.354 45.9136 166.8 37.5158 166.8 22.9111C166.8 6.2982 155.354 -9.23833e-05 141.183 -9.23833e-05C127.011 -9.23833e-05 115.656 6.2982 115.656 22.9111ZM141.183 30.396C138.094 30.396 135.551 27.2012 135.551 22.9111C135.551 18.5297 138.094 15.4262 141.183 15.4262C144.362 15.4262 146.815 18.5297 146.815 22.9111C146.815 27.2012 144.362 30.396 141.183 30.396Z" fill="white"/>
<path d="M61.3152 22.9111C61.3152 37.5158 72.6705 45.9136 86.8419 45.9136C101.013 45.9136 112.46 37.5158 112.46 22.9111C112.46 6.2982 101.013 -9.23833e-05 86.8419 -9.23833e-05C72.6705 -9.23833e-05 61.3152 6.2982 61.3152 22.9111ZM86.8419 30.396C83.7533 30.396 81.2097 27.2012 81.2097 22.9111C81.2097 18.5297 83.7533 15.4262 86.8419 15.4262C90.0214 15.4262 92.4742 18.5297 92.4742 22.9111C92.4742 27.2012 90.0214 30.396 86.8419 30.396Z" fill="white"/>
<path d="M37.8456 3.4873H56.0844V67.1271H37.8456L19.9715 37.2164C18.9684 35.58 17.9653 33.3071 17.5093 31.3979L17.3269 31.4888C17.8741 33.4889 18.1476 35.58 18.1476 37.671V67.1271H0V3.4873H18.1476L36.0217 33.398C37.0248 35.2163 37.8456 37.2164 38.4839 39.2165L38.6663 39.1256C38.1192 37.3073 37.8456 34.8526 37.8456 32.9434V3.4873Z" fill="white"/>
<path d="M113.767 66.8364C114.281 57.3516 125.76 49.7413 140.066 49.4009C125.76 49.0604 114.281 41.4501 113.767 31.9653C113.254 41.4501 101.775 49.0604 87.4685 49.4009C101.775 49.7413 113.254 57.3516 113.767 66.8364Z" fill="white"/>
<path d="M96.4484 58.6011H98.9567V66.5818H96.6765V66.16C96.6879 65.8863 96.7107 65.6241 96.7563 65.3619H96.7335C96.6879 65.5899 96.6194 65.9205 96.4826 66.1143C96.1748 66.5476 95.6276 66.673 94.9435 66.6844C93.5184 66.6958 92.3555 66.1485 92.3555 63.9025V58.6011H94.8523V63.5377C94.8523 64.4156 95.2171 64.7576 95.6504 64.7576C96.1064 64.7576 96.4484 64.4384 96.4484 63.5035V58.6011Z" fill="white"/>
<path d="M79.4202 58.6011H86.2494V60.8813H84.4138C84.1858 60.8813 83.9008 60.8015 83.7297 60.6305L83.7183 60.6533C83.8894 60.8129 83.9692 61.0979 83.9692 61.3373V66.5818H81.689V61.3373C81.689 61.0979 81.7688 60.8129 81.9284 60.6533L81.917 60.6305C81.746 60.8015 81.4723 60.8813 81.2329 60.8813H79.4202V58.6011Z" fill="white"/>
<path d="M72.3396 62.2493C72.921 62.5229 73.4797 63.0816 73.4797 64.0507C73.4797 66.5133 71.0057 66.6843 70.162 66.6843C68.4746 66.6843 66.8329 65.9775 66.2856 65.4188L66.9811 63.606C67.2205 63.8341 68.8509 64.6663 69.877 64.6663C69.9682 64.6663 71.2223 64.8488 71.2223 64.1647C71.2223 63.4464 68.7711 63.4806 67.5398 62.8536C67.0951 62.637 66.4681 62.0897 66.4681 61.1206C66.4681 58.5896 68.9991 58.4756 69.6945 58.4756C71.6213 58.4756 72.9666 59.3193 73.4569 59.7639L72.75 61.5539C72.4878 61.3258 70.8346 60.4936 69.877 60.4936C69.7858 60.4936 68.7369 60.3112 68.7369 60.9952C68.7369 61.6679 71.7125 61.9529 72.3396 62.2493Z" fill="white"/>
<path d="M156.393 58.5669C158.4 58.5669 160.019 59.2396 160.099 62.6257C160.019 66.0118 158.4 66.6844 156.393 66.6844C154.375 66.6844 152.756 66.0118 152.699 62.6257C152.756 59.2396 154.375 58.5669 156.393 58.5669ZM156.393 64.7576C157.066 64.7576 157.59 64.2788 157.59 62.5686C157.59 60.8699 157.066 60.4253 156.393 60.4253C155.732 60.4253 155.196 60.8813 155.196 62.6257C155.196 64.2902 155.732 64.7576 156.393 64.7576Z" fill="white"/>
<path d="M146.323 66.5818H144.055V58.6011H146.323V66.5818Z" fill="white"/>
<path d="M137.086 59.8666C137.542 60.6875 137.679 61.7136 137.679 62.5344V62.6256C137.679 64.0964 137.143 66.6046 134.475 66.5818H131.34V58.6011H134.555C135.82 58.6011 136.619 59.0571 137.086 59.8666ZM135.399 62.637V62.5344C135.399 61.0751 135.399 60.5392 133.962 60.5392H133.609V64.1876C133.609 64.427 133.529 64.712 133.358 64.8716L133.381 64.8944C133.54 64.7234 133.825 64.6436 134.065 64.6436C135.399 64.6208 135.399 64.0622 135.399 62.637Z" fill="white"/>
</svg>
