<svg width="108" height="32" viewBox="0 0 108 32" fill="none" xmlns="http://www.w3.org/2000/svg">
<path d="M97.9994 16.7838C98.9144 16.7838 99.6987 17.4794 100.134 18.2619L107.498 32.0001H98.7837L91.6816 18.7836H90.6795V32.0001H82.0088V1.52393H90.6795V14.8708H91.5945L98.7837 1.52393H107.498L100.134 15.2621C99.6987 16.0447 98.9144 16.6968 97.9994 16.6968V16.7838Z" fill="#2A330C"/>
<path d="M55.1343 10.9217C55.1343 17.8839 60.5474 21.8872 67.3031 21.8872C74.0587 21.8872 79.5152 17.8839 79.5152 10.9217C79.5152 3.00221 74.0587 -0.000241046 67.3031 -0.000241046C60.5474 -0.000241046 55.1343 3.00221 55.1343 10.9217ZM67.3031 14.4899C65.8307 14.4899 64.6182 12.9669 64.6182 10.9217C64.6182 8.83306 65.8307 7.35359 67.3031 7.35359C68.8188 7.35359 69.988 8.83306 69.988 10.9217C69.988 12.9669 68.8188 14.4899 67.3031 14.4899Z" fill="#2A330C"/>
<path d="M29.2295 10.9217C29.2295 17.8839 34.6427 21.8872 41.3983 21.8872C48.154 21.8872 53.6104 17.8839 53.6104 10.9217C53.6104 3.00221 48.154 -0.000241046 41.3983 -0.000241046C34.6427 -0.000241046 29.2295 3.00221 29.2295 10.9217ZM41.3983 14.4899C39.9259 14.4899 38.7134 12.9669 38.7134 10.9217C38.7134 8.83306 39.9259 7.35359 41.3983 7.35359C42.914 7.35359 44.0833 8.83306 44.0833 10.9217C44.0833 12.9669 42.914 14.4899 41.3983 14.4899Z" fill="#2A330C"/>
<path d="M18.0413 1.66211H26.7359V31.9998H18.0413L9.5206 17.7411C9.0424 16.961 8.56419 15.8775 8.34683 14.9673L8.25988 15.0107C8.52072 15.9642 8.65114 16.961 8.65114 17.9578V31.9998H0V1.66211H8.65114L17.1719 15.9208C17.6501 16.7876 18.0413 17.7411 18.3456 18.6945L18.4326 18.6512C18.1717 17.7844 18.0413 16.6142 18.0413 15.7041V1.66211Z" fill="#2A330C"/>
<path d="M54.2336 31.8613C54.4784 27.3398 59.9504 23.7119 66.7704 23.5496C59.9504 23.3874 54.4784 19.7594 54.2336 15.238C53.9888 19.7594 48.5167 23.3874 41.6968 23.5496C48.5167 23.7119 53.9888 27.3398 54.2336 31.8613Z" fill="#2A330C"/>
<path d="M45.978 27.936H47.1737V31.7405H46.0867V31.5394C46.0921 31.409 46.103 31.284 46.1248 31.159H46.1139C46.0921 31.2677 46.0595 31.4253 45.9943 31.5177C45.8476 31.7242 45.5867 31.784 45.2606 31.7894C44.5812 31.7949 44.0269 31.534 44.0269 30.4633V27.936H45.2171V30.2894C45.2171 30.7079 45.391 30.8709 45.5976 30.8709C45.815 30.8709 45.978 30.7187 45.978 30.2731V27.936Z" fill="#2A330C"/>
<path d="M37.8604 27.936H41.1159V29.023H40.2409C40.1322 29.023 39.9963 28.985 39.9148 28.9035L39.9093 28.9143C39.9909 28.9904 40.0289 29.1263 40.0289 29.2404V31.7405H38.9419V29.2404C38.9419 29.1263 38.98 28.9904 39.056 28.9143L39.0506 28.9035C38.9691 28.985 38.8386 29.023 38.7245 29.023H37.8604V27.936Z" fill="#2A330C"/>
<path d="M34.4851 29.6749C34.7623 29.8054 35.0286 30.0717 35.0286 30.5337C35.0286 31.7076 33.8492 31.7892 33.447 31.7892C32.6426 31.7892 31.86 31.4522 31.5991 31.1859L31.9307 30.3217C32.0448 30.4304 32.822 30.8272 33.3111 30.8272C33.3546 30.8272 33.9525 30.9141 33.9525 30.588C33.9525 30.2456 32.7839 30.2619 32.197 29.963C31.985 29.8597 31.6861 29.5989 31.6861 29.1369C31.6861 27.9303 32.8926 27.876 33.2242 27.876C34.1427 27.876 34.784 28.2782 35.0177 28.4901L34.6807 29.3434C34.5557 29.2347 33.7677 28.838 33.3111 28.838C33.2677 28.838 32.7676 28.751 32.7676 29.0771C32.7676 29.3978 34.1862 29.5336 34.4851 29.6749Z" fill="#2A330C"/>
<path d="M74.5544 27.9194C75.5109 27.9194 76.2827 28.2401 76.3207 29.8543C76.2827 31.4685 75.5109 31.7891 74.5544 31.7891C73.5924 31.7891 72.8206 31.4685 72.7935 29.8543C72.8206 28.2401 73.5924 27.9194 74.5544 27.9194ZM74.5544 30.8706C74.875 30.8706 75.1251 30.6423 75.1251 29.8271C75.1251 29.0173 74.875 28.8053 74.5544 28.8053C74.2392 28.8053 73.9837 29.0227 73.9837 29.8543C73.9837 30.6478 74.2392 30.8706 74.5544 30.8706Z" fill="#2A330C"/>
<path d="M69.7539 31.74H68.6724V27.9355H69.7539V31.74Z" fill="#2A330C"/>
<path d="M65.3501 28.5388C65.5675 28.9301 65.6327 29.4193 65.6327 29.8106V29.8541C65.6327 30.5552 65.3772 31.7509 64.1055 31.74H62.6108V27.9355H64.1435C64.7468 27.9355 65.1272 28.1529 65.3501 28.5388ZM64.5457 29.8595V29.8106C64.5457 29.1149 64.5457 28.8595 63.8609 28.8595H63.6924V30.5987C63.6924 30.7128 63.6544 30.8487 63.5728 30.9248L63.5837 30.9356C63.6598 30.8541 63.7957 30.8161 63.9098 30.8161C64.5457 30.8052 64.5457 30.5389 64.5457 29.8595Z" fill="#2A330C"/>
</svg>
