<svg width="232" height="60" viewBox="0 0 232 60" fill="none" xmlns="http://www.w3.org/2000/svg">
<rect width="231.765" height="60" fill="#D3FE3D"/>
<path d="M49.0771 24.4368C49.0771 32.3646 54.9181 36.9231 62.2076 36.9231C69.4971 36.9231 75.3848 32.3646 75.3848 24.4368C75.3848 15.4189 69.4971 12 62.2076 12C54.9181 12 49.0771 15.4189 49.0771 24.4368ZM62.2076 28.4998C60.6189 28.4998 59.3105 26.7656 59.3105 24.4368C59.3105 22.0584 60.6189 20.3738 62.2076 20.3738C63.8431 20.3738 65.1047 22.0584 65.1047 24.4368C65.1047 26.7656 63.8431 28.4998 62.2076 28.4998Z" fill="#2A330C"/>
<path d="M20 24.4368C20 32.3646 25.9947 36.9231 33.476 36.9231C40.9574 36.9231 47 32.3646 47 24.4368C47 15.4189 40.9574 12 33.476 12C25.9947 12 20 15.4189 20 24.4368ZM33.476 28.4998C31.8455 28.4998 30.5027 26.7656 30.5027 24.4368C30.5027 22.0584 31.8455 20.3738 33.476 20.3738C35.1545 20.3738 36.4494 22.0584 36.4494 24.4368C36.4494 26.7656 35.1545 28.4998 33.476 28.4998Z" fill="#2A330C"/>
<path d="M47.6923 48C47.9627 42.9158 54.0063 38.8363 61.5385 38.6538C54.0063 38.4714 47.9627 34.3919 47.6923 29.3077C47.422 34.3919 41.3784 38.4714 33.8462 38.6538C41.3784 38.8363 47.422 42.9158 47.6923 48Z" fill="#2A330C"/>
<path d="M199.702 29.7659C199.702 26.3377 202.38 24.3665 205.723 24.3665C209.066 24.3665 211.765 26.3377 211.765 29.7659C211.765 33.6656 209.066 35.144 205.723 35.144C202.38 35.144 199.702 33.6656 199.702 29.7659ZM205.723 28.009C204.994 28.009 204.395 28.7589 204.395 29.7659C204.395 30.7944 204.994 31.5229 205.723 31.5229C206.473 31.5229 207.051 30.7944 207.051 29.7659C207.051 28.7589 206.473 28.009 205.723 28.009Z" fill="#2A330C"/>
<path d="M194.164 21.8383C194.164 20.767 195.171 19.9099 196.436 19.9099C197.7 19.9099 198.707 20.767 198.707 21.8383C198.707 22.9096 197.7 23.7667 196.436 23.7667C195.171 23.7667 194.164 22.9096 194.164 21.8383ZM194.271 35.1013L194.271 24.4095L198.557 24.4095L198.557 35.1013L194.271 35.1013Z" fill="#2A330C"/>
<path d="M188.434 24.0451L188.434 19.0527L192.719 19.0527L192.719 35.1012L188.434 35.1012L188.434 34.437C188.456 33.9656 188.52 33.4728 188.648 33.0228L188.606 33.0014C188.156 34.4798 186.956 35.3154 185.37 35.3154C182.885 35.3154 180.956 33.1728 180.956 30.8802L180.956 28.6518C180.956 26.3806 182.885 24.1951 186.249 24.1951C187.384 24.1951 188.134 24.3879 188.713 25.4807L188.756 25.4593C188.541 25.0736 188.434 24.4951 188.434 24.0451ZM188.434 31.2658L188.434 28.2447C187.898 27.859 187.599 27.6233 186.741 27.6233C186.034 27.6233 185.22 28.159 185.22 29.1875L185.22 30.3445C185.22 31.373 186.034 31.8872 186.741 31.8872C187.599 31.8872 187.898 31.6515 188.434 31.2658Z" fill="#2A330C"/>
<path d="M174.903 34.2656C174.132 34.9513 173.103 35.1655 172.096 35.1655C170.125 35.1655 168.261 34.3085 168.261 32.0801L168.261 24.4094L172.525 24.4094L172.525 30.066C172.525 31.2873 173.146 31.7159 174.046 31.7159C174.753 31.7159 175.117 31.6302 175.439 31.4159L175.439 24.4094L179.724 24.4094L179.724 35.1012L175.439 35.1012L175.439 34.4585C175.439 34.0085 175.525 33.4514 175.675 33.0443L175.632 33.0229C175.482 33.43 175.225 33.9656 174.903 34.2656Z" fill="#2A330C"/>
<path d="M163.234 21.4953L163.234 23.5094C163.234 23.9379 163.084 24.4736 162.763 24.7736L162.805 24.8164C163.105 24.495 163.641 24.345 164.091 24.345L166.919 24.345L166.919 27.1305L163.234 27.1305L163.234 30.2159C163.234 31.4372 164.177 31.4586 164.67 31.4586C165.27 31.4586 165.827 31.2015 166.727 30.8158L167.112 34.5012C166.019 34.8226 165.098 35.2511 163.641 35.3154C161.263 35.4225 158.949 34.4798 158.949 31.0301L158.949 27.1305L157.577 27.1305L157.577 24.345L158.949 24.345L158.949 21.4739L163.234 21.4953Z" fill="#2A330C"/>
<path d="M155.085 27.0021C156.178 27.5163 157.228 28.5662 157.228 30.3875C157.228 35.0156 152.578 35.337 150.993 35.337C147.821 35.337 144.736 34.0085 143.708 32.9587L145.015 29.5518C145.464 29.9804 148.528 31.5445 150.457 31.5445C150.628 31.5445 152.985 31.8873 152.985 30.6017C152.985 29.2519 148.378 29.3161 146.064 28.1377C145.229 27.7306 144.05 26.7021 144.05 24.8809C144.05 20.1242 148.807 19.9099 150.114 19.9099C153.735 19.9099 156.263 21.4955 157.185 22.3311L155.856 25.6951C155.364 25.2665 152.257 23.7024 150.457 23.7024C150.285 23.7024 148.314 23.3596 148.314 24.6452C148.314 25.9093 153.907 26.445 155.085 27.0021Z" fill="#2A330C"/>
<path d="M135.997 24.4094L133.104 28.0947C132.825 28.4375 132.397 28.7375 131.947 28.6947L131.926 28.7375C132.376 28.7804 132.761 29.1232 132.975 29.5303L135.997 35.1012L131.711 35.1012L128.69 29.616L128.69 35.1012L124.426 35.1012L124.426 19.0527L128.69 19.0527L128.69 28.1804L131.711 24.4094L135.997 24.4094Z" fill="#2A330C"/>
<path d="M111.234 29.7659C111.234 26.3377 113.912 24.3665 117.255 24.3665C120.597 24.3665 123.297 26.3377 123.297 29.7659C123.297 33.6656 120.597 35.144 117.255 35.144C113.912 35.144 111.234 33.6656 111.234 29.7659ZM117.255 28.009C116.526 28.009 115.926 28.7589 115.926 29.7659C115.926 30.7944 116.526 31.5229 117.255 31.5229C118.005 31.5229 118.583 30.7944 118.583 29.7659C118.583 28.7589 118.005 28.009 117.255 28.009Z" fill="#2A330C"/>
<path d="M98.4702 29.7659C98.4702 26.3377 101.149 24.3665 104.491 24.3665C107.834 24.3665 110.533 26.3377 110.533 29.7659C110.533 33.6656 107.834 35.144 104.491 35.144C101.149 35.144 98.4702 33.6656 98.4702 29.7659ZM104.491 28.009C103.763 28.009 103.163 28.7589 103.163 29.7659C103.163 30.7944 103.763 31.5229 104.491 31.5229C105.241 31.5229 105.82 30.7944 105.82 29.7659C105.82 28.7589 105.241 28.009 104.491 28.009Z" fill="#2A330C"/>
<path d="M92.9574 20.167L97.2427 20.167L97.2427 35.1655L92.9574 35.1655L88.7578 28.1162C88.5221 27.7305 88.2865 27.1949 88.1793 26.7449L88.1365 26.7664C88.265 27.2377 88.3293 27.7305 88.3293 28.2234L88.3293 35.1655L84.0654 35.1655L84.0654 20.167L88.3293 20.167L92.5289 27.2163C92.7646 27.6448 92.9574 28.1162 93.1074 28.5876L93.1503 28.5662C93.0217 28.1377 92.9574 27.5591 92.9574 27.1092L92.9574 20.167Z" fill="#2A330C"/>
</svg>
