<svg width="511" height="400" viewBox="0 0 511 400" fill="none" xmlns="http://www.w3.org/2000/svg">
<path d="M362.511 365.279H351.061V365.608H362.511V365.279Z" fill="#EBEBEB"/>
<path d="M72.1833 351.68H63.8423V352.01H72.1833V351.68Z" fill="#EBEBEB"/>
<path d="M255.488 400C396.59 400 510.976 393.322 510.976 385.084C510.976 376.845 396.59 370.167 255.488 370.167C114.386 370.167 0 376.845 0 385.084C0 393.322 114.386 400 255.488 400Z" fill="#E0E0E0"/>
<path d="M83.5554 296.087C83.5554 296.087 95.3356 299.012 97.9051 309.264C101.186 303.387 108.157 296.442 122.941 293.912C122.941 293.912 120.49 320.411 94.9535 318.566C94.9732 318.125 95.0172 317.685 95.0853 317.249C91.0268 315.457 83.8321 310.199 83.5554 296.087Z" fill="#D3FE3D"/>
<path opacity="0.2" d="M83.5554 296.087C83.5554 296.087 95.3356 299.012 97.9051 309.264C101.186 303.387 108.157 296.442 122.941 293.912C122.941 293.912 120.49 320.411 94.9535 318.566C94.9732 318.125 95.0172 317.685 95.0853 317.249C91.0268 315.457 83.8321 310.199 83.5554 296.087Z" fill="black"/>
<path d="M118.896 381.038C103.927 388.852 100.106 383.107 100.106 383.107C100.106 383.107 93.1612 388.654 80.485 382.04C72.7765 378.007 65.6609 367.295 62.0373 355.593C57.8602 342.034 58.4268 327.131 68.3095 319.923C84.7675 307.906 99.7629 317.71 99.7629 317.71C99.7629 317.71 114.113 310.304 128.212 318.21C128.849 318.576 129.457 318.99 130.03 319.449C145.368 331.519 133.338 373.514 118.896 381.038Z" fill="#E34133"/>
<path opacity="0.2" d="M112.017 366.095C97.0485 373.896 93.2271 368.164 93.2271 368.164C93.2271 368.164 86.2697 373.712 73.5935 367.097C69.4164 364.936 65.4237 360.785 62.0768 355.593C57.8997 342.034 58.4663 327.131 68.349 319.923C84.8071 307.906 99.8025 317.71 99.8025 317.71C99.8025 317.71 114.152 310.304 128.252 318.21C128.889 318.576 129.497 318.99 130.07 319.449C131.849 336.645 122.572 360.601 112.017 366.095Z" fill="white"/>
<path d="M167.585 338.833C174.173 335.841 181.263 335.354 183.687 337.923L182.646 339.109C182.646 339.109 175.623 334.524 167.585 340.651V338.833Z" fill="#D3FE3D"/>
<path d="M155.027 384.675C148.965 385.403 142.841 385.47 136.764 384.873C132.537 384.534 128.409 383.418 124.588 381.579L124.009 381.263C116.102 376.637 112.492 358.427 112.492 358.427L170.154 337.924V338.042C170.277 338.279 170.396 338.543 170.51 338.833C181.487 362.828 168.217 383.094 155.027 384.675Z" fill="#E34133"/>
<path d="M151.39 383.002C130.307 383.252 112.479 358.427 112.479 358.427L170.141 337.924C179.062 356.345 172.473 382.738 151.39 383.002Z" fill="#FBE9B4"/>
<path opacity="0.2" d="M155.027 384.675C148.965 385.403 142.841 385.47 136.764 384.873C132.556 384.429 128.446 383.317 124.588 381.579L124.009 381.263C116.102 376.637 112.492 358.427 112.492 358.427C112.492 358.427 137.238 396.64 162.077 381.276C179.457 370.537 174.042 346.818 170.563 338.833C181.487 362.828 168.217 383.094 155.027 384.675Z" fill="black"/>
<path opacity="0.2" d="M146.633 347.108C147.107 346.919 147.596 346.773 148.096 346.673C149.598 346.396 150.995 345.658 152.563 345.909C152.997 345.944 153.402 346.141 153.696 346.462C153.901 346.807 153.985 347.211 153.933 347.608C153.962 348.521 153.762 349.427 153.354 350.244C153.043 350.748 152.646 351.194 152.181 351.562C151.031 352.472 149.669 353.078 148.223 353.322C146.776 353.567 145.291 353.441 143.906 352.958C143.191 352.759 142.55 352.356 142.061 351.799C141.82 351.518 141.673 351.169 141.64 350.8C141.607 350.432 141.69 350.062 141.877 349.743C142.143 349.423 142.482 349.17 142.865 349.005C144.079 348.292 145.338 347.658 146.633 347.108Z" fill="black"/>
<path d="M148.755 348.096C148.787 348.262 148.787 348.431 148.755 348.597C148.587 349.112 148.247 349.553 147.793 349.849C147.464 350.12 147.059 350.282 146.633 350.31C145.316 350.31 145.316 348.992 145.79 348.083C146.264 347.174 148.649 346.475 148.755 348.096Z" fill="#263238"/>
<path d="M249.717 328.106C236.54 319.713 234.563 310.976 235.222 305.113C236.698 292.871 250.428 282.883 262.551 278.759C282.461 272.038 286.994 261.8 287.034 261.695L289.472 262.709C289.287 263.17 284.57 274.107 263.394 281.262C252.023 285.097 239.175 294.281 237.831 305.403C236.948 312.716 241.534 319.792 251.074 325.853L249.717 328.106Z" fill="#D3FE3D"/>
<path d="M251.074 341.943C237.146 340.48 228.291 334.036 226.802 324.259C224.957 312.268 234.998 298.63 250.679 291.844C278.35 279.853 290.776 268.231 290.908 268.125L292.726 270.036C292.212 270.51 279.945 282.08 251.733 294.281C237.133 300.593 227.738 313.046 229.332 323.877C230.65 332.376 238.635 338.016 251.272 339.334L251.074 341.943Z" fill="#263238"/>
<path d="M461.115 226.367L459.204 224.562C460.337 223.35 486.625 194.65 448.135 158.058C441.547 151.799 435.472 145.856 430.122 140.612C402.2 113.269 386.823 98.208 358.532 95.0587L358.822 92.4233C388.022 95.6649 404.559 111.873 431.967 138.714C437.317 143.985 443.365 149.888 449.941 156.134C490.394 194.584 461.418 226.051 461.115 226.367Z" fill="#D3FE3D"/>
<path d="M451.43 229.279L448.043 225.326L449.73 227.342L448.03 225.326C448.254 225.142 469.732 206.628 464.857 179.365C461.813 162.327 433.39 126.183 401.291 105.113C387.798 96.2448 368.204 86.507 351.561 90.4337L350.349 85.3079C368.797 80.9463 389.88 91.277 404.19 100.699C435.011 120.938 466.399 157.992 470.075 178.443C475.464 208.737 452.418 228.515 451.43 229.279Z" fill="#263238"/>
<path d="M475.544 224.997L444.709 192.226C444.201 191.683 443.59 191.248 442.911 190.944C442.232 190.641 441.5 190.477 440.756 190.46C439.333 190.46 425.076 190.46 425.076 190.46C424.318 190.414 423.559 190.523 422.845 190.782C422.131 191.04 421.478 191.442 420.925 191.962L403.136 208.71C402.056 209.726 401.423 211.129 401.376 212.611C401.329 214.094 401.872 215.534 402.886 216.616L433.707 249.387C434.214 249.931 434.825 250.367 435.504 250.671C436.183 250.974 436.916 251.138 437.66 251.153C439.096 251.153 452.049 251.153 453.472 251.153C454.937 251.181 456.354 250.637 457.425 249.638L475.227 232.89C476.309 231.881 476.95 230.486 477.009 229.008C477.068 227.53 476.541 226.089 475.544 224.997Z" fill="#263238"/>
<path opacity="0.2" d="M475.544 224.997L444.709 192.226C444.201 191.683 443.59 191.248 442.911 190.944C442.232 190.641 441.5 190.477 440.756 190.46C439.333 190.46 425.076 190.46 425.076 190.46C424.318 190.414 423.559 190.523 422.845 190.782C422.131 191.04 421.478 191.442 420.925 191.962L403.136 208.71C402.056 209.726 401.423 211.129 401.376 212.611C401.329 214.094 401.872 215.534 402.886 216.616L433.707 249.387C434.214 249.931 434.825 250.367 435.504 250.671C436.183 250.974 436.916 251.138 437.66 251.153C439.096 251.153 452.049 251.153 453.472 251.153C454.937 251.181 456.354 250.637 457.425 249.638L475.227 232.89C476.309 231.881 476.95 230.486 477.009 229.008C477.068 227.53 476.541 226.089 475.544 224.997Z" fill="white"/>
<path opacity="0.2" d="M436.806 192.028L418.996 208.77C416.743 210.888 416.633 214.432 418.752 216.686L449.573 249.473C451.691 251.726 455.235 251.836 457.489 249.717L475.299 232.976C477.552 230.857 477.662 227.313 475.543 225.059L444.722 192.272C442.603 190.019 439.059 189.909 436.806 192.028Z" fill="black"/>
<path d="M435.248 239.465C433.762 238.126 431.997 237.135 430.08 236.563C428.163 235.99 426.143 235.852 424.167 236.158L399.71 262.05C398.103 263.763 399.71 267.176 404.098 270.813C409.25 275.043 413.388 274.621 414.64 273.343L439.281 247.16C439.157 245.673 438.737 244.226 438.044 242.904C437.351 241.582 436.401 240.413 435.248 239.465Z" fill="#D3FE3D"/>
<path opacity="0.2" d="M399.71 262.051C403.663 257.926 418.5 269.192 414.587 273.343C413.388 274.661 409.25 275.043 404.045 270.813C399.697 267.176 398.102 263.764 399.71 262.051Z" fill="black"/>
<path d="M362.143 339.149V354.263H328.291V339.149C328.295 335.922 329.579 332.829 331.862 330.548C334.145 328.268 337.24 326.987 340.467 326.987H349.967C353.194 326.987 356.289 328.268 358.572 330.548C360.855 332.829 362.139 335.922 362.143 339.149Z" fill="#263238"/>
<path opacity="0.2" d="M362.143 339.149V354.263H328.291V339.149C328.295 335.922 329.579 332.829 331.862 330.548C334.145 328.268 337.24 326.987 340.467 326.987H349.967C353.194 326.987 356.289 328.268 358.572 330.548C360.855 332.829 362.139 335.922 362.143 339.149Z" fill="white"/>
<path opacity="0.2" d="M362.143 339.149V354.263H334.879V339.149C334.879 335.923 336.161 332.83 338.442 330.549C340.723 328.268 343.816 326.987 347.042 326.987H349.967C353.194 326.987 356.289 328.268 358.572 330.548C360.855 332.829 362.139 335.922 362.143 339.149Z" fill="black"/>
<path d="M412.096 272.974L411.266 273.857L351.68 337.199C351.041 337.879 350.274 338.426 349.423 338.81C348.572 339.194 347.653 339.406 346.721 339.435C345.788 339.463 344.858 339.308 343.985 338.978C343.112 338.647 342.313 338.148 341.633 337.509C340.953 336.869 340.405 336.102 340.022 335.251C339.638 334.4 339.426 333.482 339.397 332.549C339.368 331.616 339.523 330.686 339.854 329.813C340.184 328.94 340.684 328.141 341.323 327.461L399.578 265.529L400.896 264.212C404.612 262.815 413.506 269.667 412.096 272.974Z" fill="#D3FE3D"/>
<path d="M375.319 339.149V354.263H341.481V339.149C341.481 335.923 342.762 332.83 345.043 330.549C347.324 328.268 350.418 326.987 353.643 326.987H363.157C366.383 326.987 369.476 328.268 371.757 330.549C374.038 332.83 375.319 335.923 375.319 339.149Z" fill="#263238"/>
<path opacity="0.2" d="M375.319 339.149V354.263H341.481V339.149C341.481 335.923 342.762 332.83 345.043 330.549C347.324 328.268 350.418 326.987 353.643 326.987H363.157C366.383 326.987 369.476 328.268 371.757 330.549C374.038 332.83 375.319 335.923 375.319 339.149Z" fill="white"/>
<path opacity="0.2" d="M375.32 339.149V354.263H348.07V339.149C348.07 335.923 349.351 332.83 351.632 330.549C353.913 328.268 357.006 326.987 360.232 326.987H363.157C366.383 326.987 369.476 328.268 371.757 330.549C374.038 332.83 375.32 335.923 375.32 339.149Z" fill="black"/>
<path d="M318 345.895V379.826H385.94V345.895C385.94 344.847 385.524 343.842 384.782 343.1C384.041 342.359 383.036 341.942 381.987 341.942H321.9C320.861 341.956 319.869 342.379 319.139 343.119C318.409 343.859 318 344.856 318 345.895Z" fill="#263238"/>
<path opacity="0.2" d="M318 345.895V379.826H385.94V345.895C385.94 344.847 385.524 343.842 384.782 343.1C384.041 342.359 383.036 341.942 381.987 341.942H321.9C320.861 341.956 319.869 342.379 319.139 343.119C318.409 343.859 318 344.856 318 345.895Z" fill="white"/>
<path opacity="0.2" d="M318 345.895V379.826H362.222V345.895C362.222 344.847 361.805 343.842 361.064 343.1C360.322 342.359 359.317 341.942 358.269 341.942H321.9C320.861 341.956 319.869 342.379 319.139 343.119C318.409 343.859 318 344.856 318 345.895Z" fill="white"/>
<path d="M302.293 326.394V356.622H234.603V326.394C234.601 323.197 235.229 320.03 236.451 317.076C237.674 314.122 239.466 311.437 241.726 309.176C243.986 306.914 246.67 305.12 249.624 303.897C252.577 302.673 255.743 302.043 258.94 302.043H277.955C281.152 302.043 284.318 302.673 287.272 303.897C290.225 305.12 292.909 306.914 295.169 309.176C297.429 311.437 299.221 314.122 300.444 317.076C301.666 320.03 302.294 323.197 302.293 326.394Z" fill="#6953DA"/>
<path opacity="0.2" d="M302.293 326.394V356.622H247.78V326.394C247.776 323.197 248.403 320.031 249.624 317.077C250.844 314.123 252.636 311.438 254.895 309.177C257.154 306.915 259.837 305.121 262.79 303.897C265.742 302.673 268.908 302.043 272.104 302.043H277.955C281.152 302.043 284.318 302.673 287.272 303.897C290.225 305.12 292.909 306.914 295.169 309.176C297.429 311.437 299.222 314.122 300.444 317.076C301.666 320.03 302.294 323.197 302.293 326.394Z" fill="black"/>
<path d="M370.852 238.187L363.276 246.251L353.235 256.925L326.354 285.519C325.998 285.894 325.569 286.194 325.093 286.398C324.617 286.602 324.104 286.706 323.587 286.704H312.07C311.091 286.718 310.146 286.35 309.435 285.677L281.434 259.323C280.705 258.631 280.279 257.678 280.25 256.674C280.22 255.669 280.589 254.694 281.275 253.96L325.774 206.641C326.123 206.269 326.543 205.971 327.009 205.765C327.476 205.559 327.979 205.449 328.489 205.442H340.058C341.036 205.432 341.98 205.8 342.693 206.47L363.263 225.814L370.681 232.797C371.047 233.14 371.341 233.551 371.548 234.007C371.755 234.463 371.869 234.956 371.885 235.457C371.901 235.957 371.818 236.456 371.641 236.925C371.464 237.393 371.196 237.822 370.852 238.187Z" fill="#263238"/>
<path opacity="0.3" d="M370.852 238.187L363.276 246.251L353.235 256.925L326.354 285.519C325.998 285.894 325.569 286.194 325.093 286.398C324.617 286.602 324.104 286.706 323.587 286.704H312.07C311.091 286.718 310.146 286.35 309.435 285.677L281.434 259.323C280.705 258.631 280.279 257.678 280.25 256.674C280.22 255.669 280.589 254.694 281.275 253.96L325.774 206.641C326.123 206.269 326.543 205.971 327.009 205.765C327.476 205.559 327.979 205.449 328.489 205.442H340.058C341.036 205.432 341.98 205.8 342.693 206.47L363.263 225.814L370.681 232.797C371.047 233.14 371.341 233.551 371.548 234.007C371.755 234.463 371.869 234.956 371.885 235.457C371.901 235.957 371.818 236.456 371.641 236.925C371.464 237.393 371.196 237.822 370.852 238.187Z" fill="white"/>
<path opacity="0.2" d="M363.276 225.84V246.251L353.235 256.925H282.685C282.347 256.927 282.015 256.833 281.728 256.653C281.441 256.473 281.211 256.215 281.066 255.909C280.921 255.603 280.866 255.262 280.908 254.926C280.949 254.59 281.086 254.273 281.302 254.012L325.8 206.694C326.149 206.322 326.569 206.024 327.036 205.818C327.502 205.612 328.005 205.502 328.515 205.495H340.084C341.062 205.485 342.006 205.853 342.72 206.523L363.276 225.84Z" fill="white"/>
<path d="M418.882 188.839C416.468 185.736 413.376 183.225 409.843 181.499C406.31 179.772 402.43 178.876 398.498 178.877C395.862 178.877 385.993 178.877 383.502 178.877C379.926 178.836 376.38 179.54 373.09 180.944C369.801 182.349 366.84 184.423 364.396 187.034L296.89 258.822H383.212L417.328 222.533C421.567 218.027 424.054 212.154 424.34 205.974C424.625 199.794 422.689 193.716 418.882 188.839Z" fill="#263238"/>
<path opacity="0.6" d="M418.882 188.839C416.468 185.736 413.376 183.225 409.843 181.499C406.31 179.772 402.43 178.876 398.498 178.877C395.862 178.877 385.993 178.877 383.502 178.877C379.926 178.836 376.38 179.54 373.09 180.944C369.801 182.349 366.84 184.423 364.396 187.034L296.89 258.822H383.212L417.328 222.533C421.567 218.027 424.054 212.154 424.34 205.974C424.625 199.794 422.689 193.716 418.882 188.839Z" fill="white"/>
<path opacity="0.2" d="M418.883 188.839C416.583 185.892 413.673 183.477 410.353 181.76C407.032 180.043 403.379 179.065 399.644 178.894C395.91 178.722 392.183 179.361 388.719 180.766C385.254 182.171 382.135 184.31 379.576 187.034L312.149 258.822H383.305L417.42 222.533C421.646 218.016 424.117 212.136 424.385 205.957C424.653 199.777 422.701 193.705 418.883 188.839Z" fill="black"/>
<path d="M406.602 235.473L368.125 199.289C367.158 198.389 365.888 197.886 364.567 197.879C363.17 197.879 349.954 197.879 348.649 197.879C347.952 197.886 347.263 198.034 346.624 198.315C345.986 198.596 345.41 199.003 344.933 199.513L283.74 264.58C282.803 265.595 282.302 266.936 282.344 268.316C282.386 269.696 282.967 271.004 283.964 271.96L322.454 308.157C323.414 309.067 324.688 309.572 326.011 309.567H341.824C342.535 309.569 343.238 309.426 343.891 309.145C344.544 308.863 345.132 308.451 345.619 307.933L406.799 242.852C407.739 241.841 408.245 240.501 408.208 239.122C408.171 237.742 407.594 236.432 406.602 235.473Z" fill="#6953DA"/>
<g opacity="0.2">
<path d="M406.826 242.852L345.645 307.933C344.69 308.925 343.384 309.504 342.008 309.546C340.631 309.588 339.293 309.089 338.279 308.157L299.789 271.96C298.791 271.006 298.207 269.698 298.163 268.319C298.118 266.939 298.617 265.597 299.552 264.581L360.746 199.513C361.701 198.516 363.01 197.935 364.389 197.893C365.769 197.851 367.11 198.352 368.125 199.289L406.602 235.473C407.598 236.428 408.179 237.737 408.221 239.116C408.263 240.496 407.762 241.837 406.826 242.852Z" fill="black"/>
</g>
<path d="M337.291 307.564H337.449L309.329 337.462C305.977 341.046 301.67 343.597 296.916 344.815L296.047 345.013C294.664 345.324 293.258 345.518 291.843 345.592H290.526H275.254C270.198 345.59 265.255 344.108 261.031 341.33C256.808 338.552 253.489 334.6 251.485 329.959C249.481 325.318 248.878 320.193 249.75 315.213C250.623 310.234 252.934 305.619 256.397 301.937L284.28 272.289H299.46L337.291 307.564Z" fill="#263238"/>
<path opacity="0.6" d="M337.291 307.564H337.449L309.329 337.462C305.977 341.046 301.67 343.597 296.916 344.815L296.047 345.013C294.664 345.324 293.258 345.518 291.843 345.592H290.526H275.254C270.198 345.59 265.255 344.108 261.031 341.33C256.808 338.552 253.489 334.6 251.485 329.959C249.481 325.318 248.878 320.193 249.75 315.213C250.623 310.234 252.934 305.619 256.397 301.937L284.28 272.289H299.46L337.291 307.564Z" fill="white"/>
<path opacity="0.2" d="M337.449 307.511L309.329 337.41C305.977 340.993 301.67 343.544 296.917 344.762L296.047 344.96C294.664 345.271 293.258 345.465 291.843 345.54H290.526H289.946C284.926 345.459 280.037 343.92 275.875 341.112C271.713 338.303 268.457 334.346 266.502 329.721C264.548 325.096 263.979 320.003 264.866 315.061C265.753 310.119 268.057 305.541 271.498 301.885L299.381 272.236L337.212 307.537L337.449 307.511Z" fill="black"/>
<path d="M289.234 71.8673C291.649 68.7691 294.74 66.2634 298.27 64.5415C301.801 62.8196 305.678 61.927 309.606 61.9319C312.176 61.9319 322.111 61.9319 324.601 61.9319C328.178 61.8906 331.724 62.5944 335.013 63.9987C338.303 65.403 341.264 67.477 343.708 70.0884L451.759 184.965C456 189.473 458.487 195.35 458.77 201.533C459.053 207.716 457.113 213.796 453.301 218.672C450.88 221.781 447.779 224.294 444.237 226.018C440.694 227.743 436.803 228.633 432.863 228.621H417.565C414.046 228.614 410.566 227.887 407.339 226.484C404.112 225.081 401.206 223.032 398.801 220.464L290.75 105.587C286.504 101.078 284.016 95.1956 283.738 89.0083C283.46 82.821 285.41 76.7392 289.234 71.8673Z" fill="#263238"/>
<path opacity="0.6" d="M289.234 71.8673C291.649 68.7691 294.74 66.2634 298.27 64.5415C301.801 62.8196 305.678 61.927 309.606 61.9319C312.176 61.9319 322.111 61.9319 324.601 61.9319C328.178 61.8906 331.724 62.5944 335.013 63.9987C338.303 65.403 341.264 67.477 343.708 70.0884L451.759 184.965C456 189.473 458.487 195.35 458.77 201.533C459.053 207.716 457.113 213.796 453.301 218.672C450.88 221.781 447.779 224.294 444.237 226.018C440.694 227.743 436.803 228.633 432.863 228.621H417.565C414.046 228.614 410.566 227.887 407.339 226.484C404.112 225.081 401.206 223.032 398.801 220.464L290.75 105.587C286.504 101.078 284.016 95.1956 283.738 89.0083C283.46 82.821 285.41 76.7392 289.234 71.8673Z" fill="white"/>
<path opacity="0.2" d="M453.261 218.646C457.073 213.77 459.013 207.69 458.731 201.507C458.448 195.324 455.961 189.447 451.72 184.939L343.669 70.0623C341.108 67.3398 337.988 65.2034 334.524 63.7996C331.06 62.3957 327.334 61.7577 323.6 61.9291C319.866 62.1006 316.214 63.0776 312.893 64.793C309.573 66.5084 306.662 68.9218 304.362 71.8675C300.555 76.7442 298.619 82.8221 298.905 89.002C299.19 95.1818 301.677 101.056 305.917 105.561L413.968 220.438C416.526 223.161 419.644 225.298 423.106 226.703C426.569 228.108 430.294 228.747 434.027 228.577C437.759 228.406 441.411 227.431 444.731 225.717C448.051 224.002 450.961 221.59 453.261 218.646Z" fill="black"/>
<path d="M327.527 326.394V356.622H259.836V326.394C259.835 323.197 260.463 320.03 261.685 317.076C262.908 314.122 264.7 311.437 266.96 309.176C269.22 306.914 271.904 305.12 274.858 303.897C277.811 302.673 280.977 302.043 284.174 302.043H303.189C306.386 302.043 309.552 302.673 312.505 303.897C315.459 305.12 318.143 306.914 320.403 309.176C322.663 311.437 324.455 314.122 325.678 317.076C326.9 320.03 327.528 323.197 327.527 326.394Z" fill="#6953DA"/>
<path opacity="0.2" d="M327.527 326.394V356.622H273.013V326.394C273.01 323.197 273.637 320.031 274.857 317.077C276.078 314.123 277.87 311.438 280.129 309.177C282.388 306.915 285.07 305.121 288.023 303.897C290.976 302.673 294.142 302.043 297.338 302.043H303.189C306.386 302.043 309.552 302.673 312.505 303.897C315.459 305.12 318.143 306.914 320.403 309.176C322.663 311.437 324.455 314.122 325.678 317.076C326.9 320.03 327.528 323.197 327.527 326.394Z" fill="black"/>
<path d="M355.923 353.986V380.011H204.862V353.986C204.862 352.938 205.279 351.932 206.02 351.191C206.761 350.45 207.767 350.033 208.815 350.033H352.023C353.062 350.047 354.054 350.47 354.784 351.209C355.514 351.949 355.923 352.947 355.923 353.986Z" fill="#6953DA"/>
<path opacity="0.2" d="M355.923 353.986V380.011H270.787V353.986C270.787 352.938 271.203 351.932 271.944 351.191C272.686 350.45 273.691 350.033 274.74 350.033H352.075C353.105 350.061 354.084 350.489 354.803 351.228C355.521 351.966 355.923 352.956 355.923 353.986Z" fill="black"/>
<path opacity="0.2" d="M355.923 353.986V380.011H204.862V353.986C204.862 352.938 205.279 351.932 206.02 351.191C206.761 350.45 207.767 350.033 208.815 350.033H352.023C353.062 350.047 354.054 350.47 354.784 351.209C355.514 351.949 355.923 352.947 355.923 353.986Z" fill="black"/>
<path d="M396.034 381.394V385.281H194.097V381.394C194.095 380.595 194.251 379.804 194.555 379.065C194.86 378.327 195.307 377.656 195.871 377.09C196.435 376.525 197.106 376.076 197.844 375.77C198.581 375.464 199.372 375.306 200.171 375.306H389.893C390.697 375.299 391.494 375.452 392.239 375.755C392.984 376.057 393.661 376.505 394.232 377.071C394.803 377.637 395.256 378.31 395.565 379.052C395.875 379.794 396.034 380.59 396.034 381.394Z" fill="#263238"/>
<path opacity="0.2" d="M396.034 381.394V385.281H194.097V381.394C194.095 380.595 194.251 379.804 194.555 379.065C194.86 378.327 195.307 377.656 195.871 377.09C196.435 376.525 197.106 376.076 197.844 375.77C198.581 375.464 199.372 375.306 200.171 375.306H389.893C390.697 375.299 391.494 375.452 392.239 375.755C392.984 376.057 393.661 376.505 394.232 377.071C394.803 377.637 395.256 378.31 395.565 379.052C395.875 379.794 396.034 380.59 396.034 381.394Z" fill="white"/>
<path opacity="0.2" d="M396.034 381.394V385.281H260.021V381.394C260.019 380.595 260.175 379.804 260.48 379.065C260.784 378.327 261.231 377.656 261.796 377.09C262.36 376.525 263.03 376.076 263.768 375.77C264.506 375.464 265.297 375.306 266.096 375.306H389.959C391.571 375.31 393.116 375.953 394.255 377.094C395.394 378.235 396.034 379.782 396.034 381.394Z" fill="black"/>
<path d="M305.06 310.818H301.239C292.502 310.818 285.426 319.186 285.426 329.516C285.426 339.847 292.502 348.215 301.239 348.215H305.06C313.796 348.215 320.872 339.834 320.872 329.516C320.872 319.199 313.796 310.818 305.06 310.818Z" fill="#263238"/>
<path opacity="0.2" d="M305.06 310.818H301.239C292.502 310.818 285.426 319.186 285.426 329.516C285.426 339.847 292.502 348.215 301.239 348.215H305.06C313.796 348.215 320.872 339.834 320.872 329.516C320.872 319.199 313.796 310.818 305.06 310.818Z" fill="white"/>
<path opacity="0.2" d="M305.06 348.215C313.793 348.215 320.872 339.843 320.872 329.516C320.872 319.19 313.793 310.818 305.06 310.818C296.327 310.818 289.248 319.19 289.248 329.516C289.248 339.843 296.327 348.215 305.06 348.215Z" fill="black"/>
<path d="M309.843 318.408H307.564C302.372 318.408 298.168 323.376 298.168 329.517C298.168 335.657 302.372 340.625 307.564 340.625H309.843C315.022 340.625 319.238 335.657 319.238 329.517C319.238 323.376 315.022 318.408 309.843 318.408Z" fill="#263238"/>
<path opacity="0.6" d="M309.843 318.408H307.564C302.372 318.408 298.168 323.376 298.168 329.517C298.168 335.657 302.372 340.625 307.564 340.625H309.843C315.022 340.625 319.238 335.657 319.238 329.517C319.238 323.376 315.022 318.408 309.843 318.408Z" fill="white"/>
<path opacity="0.2" d="M309.843 340.625C315.032 340.625 319.238 335.652 319.238 329.517C319.238 323.382 315.032 318.408 309.843 318.408C304.654 318.408 300.448 323.382 300.448 329.517C300.448 335.652 304.654 340.625 309.843 340.625Z" fill="black"/>
<path d="M440.756 182.857H436.935C428.199 182.857 421.123 191.224 421.123 201.555C421.123 211.886 428.199 220.253 436.935 220.253H440.756C449.479 220.253 456.569 211.886 456.569 201.555C456.569 191.224 449.479 182.857 440.756 182.857Z" fill="#263238"/>
<path opacity="0.2" d="M440.756 182.857H436.935C428.199 182.857 421.123 191.224 421.123 201.555C421.123 211.886 428.199 220.253 436.935 220.253H440.756C449.479 220.253 456.569 211.886 456.569 201.555C456.569 191.224 449.479 182.857 440.756 182.857Z" fill="white"/>
<path opacity="0.2" d="M440.756 220.253C449.489 220.253 456.569 211.881 456.569 201.555C456.569 191.228 449.489 182.857 440.756 182.857C432.024 182.857 424.944 191.228 424.944 201.555C424.944 211.881 432.024 220.253 440.756 220.253Z" fill="black"/>
<path d="M445.526 190.447H443.26C438.068 190.447 433.865 195.414 433.865 201.555C433.865 207.695 438.068 212.663 443.26 212.663H445.526C450.718 212.663 454.922 207.695 454.922 201.555C454.922 195.414 450.718 190.447 445.526 190.447Z" fill="#263238"/>
<path opacity="0.6" d="M445.526 190.447H443.26C438.068 190.447 433.865 195.414 433.865 201.555C433.865 207.695 438.068 212.663 443.26 212.663H445.526C450.718 212.663 454.922 207.695 454.922 201.555C454.922 195.414 450.718 190.447 445.526 190.447Z" fill="white"/>
<path opacity="0.2" d="M445.527 212.663C450.715 212.663 454.922 207.69 454.922 201.555C454.922 195.42 450.715 190.447 445.527 190.447C440.338 190.447 436.131 195.42 436.131 201.555C436.131 207.69 440.338 212.663 445.527 212.663Z" fill="black"/>
<path d="M287.007 55.6728C283.532 55.7301 280.086 56.3075 276.782 57.3858L251.1 67.5453V116.682L276.782 126.842C280.446 128.043 284.285 128.622 288.141 128.555C288.141 128.555 330.491 128.621 334.26 128.555C351.772 128.265 368.204 114.64 368.204 92.1203C368.204 69.1529 351.074 55.4356 333.206 55.6728C333.232 55.6728 294.505 55.5674 287.007 55.6728Z" fill="#6953DA"/>
<path opacity="0.2" d="M322.928 57.386L291.975 67.5454V116.682L322.928 126.842C343.932 133.733 368.23 119.502 368.23 92.1205C368.23 64.7388 343.932 50.5076 322.928 57.386Z" fill="black"/>
<path d="M347.318 73.4092H343.497C334.761 73.4092 327.685 81.7765 327.685 92.1073C327.685 102.438 334.761 110.805 343.497 110.805H347.318C356.055 110.805 363.131 102.438 363.131 92.1073C363.131 81.7765 356.055 73.4092 347.318 73.4092Z" fill="#263238"/>
<path opacity="0.2" d="M347.318 73.4092H343.497C334.761 73.4092 327.685 81.7765 327.685 92.1073C327.685 102.438 334.761 110.805 343.497 110.805H347.318C356.055 110.805 363.131 102.438 363.131 92.1073C363.131 81.7765 356.055 73.4092 347.318 73.4092Z" fill="white"/>
<path opacity="0.2" d="M347.318 110.805C356.051 110.805 363.131 102.434 363.131 92.1073C363.131 81.7806 356.051 73.4092 347.318 73.4092C338.586 73.4092 331.506 81.7806 331.506 92.1073C331.506 102.434 338.586 110.805 347.318 110.805Z" fill="black"/>
<path d="M352.102 80.999H349.822C344.63 80.999 340.427 85.9667 340.427 92.1072C340.427 98.2477 344.63 103.215 349.822 103.215H352.102C357.294 103.215 361.497 98.2477 361.497 92.1072C361.497 85.9667 357.294 80.999 352.102 80.999Z" fill="#263238"/>
<path opacity="0.6" d="M352.102 80.999H349.822C344.63 80.999 340.427 85.9667 340.427 92.1072C340.427 98.2477 344.63 103.215 349.822 103.215H352.102C357.294 103.215 361.497 98.2477 361.497 92.1072C361.497 85.9667 357.294 80.999 352.102 80.999Z" fill="white"/>
<path opacity="0.2" d="M352.102 103.215C357.291 103.215 361.497 98.2421 361.497 92.1072C361.497 85.9723 357.291 80.999 352.102 80.999C346.913 80.999 342.707 85.9723 342.707 92.1072C342.707 98.2421 346.913 103.215 352.102 103.215Z" fill="black"/>
<path d="M266.926 58.5718H273.778C289.432 58.5718 302.135 73.5935 302.135 92.1072C302.135 110.621 289.432 125.629 273.778 125.629H266.926C251.258 125.629 238.569 110.621 238.569 92.1072C238.569 73.5935 251.258 58.5718 266.926 58.5718Z" fill="#263238"/>
<path opacity="0.2" d="M266.926 58.5718H273.778C289.432 58.5718 302.135 73.5935 302.135 92.1072C302.135 110.621 289.432 125.629 273.778 125.629H266.926C251.258 125.629 238.569 110.621 238.569 92.1072C238.569 73.5935 251.258 58.5718 266.926 58.5718Z" fill="white"/>
<path opacity="0.2" d="M267.357 126.071C283.018 126.071 295.714 111.056 295.714 92.5354C295.714 74.0143 283.018 59 267.357 59C251.696 59 239 74.0143 239 92.5354C239 111.056 251.696 126.071 267.357 126.071Z" fill="white"/>
<path d="M257.926 65.2131H221.953C209.277 65.2131 199.012 77.2569 199.012 92.1073C199.012 106.958 209.277 119.002 221.953 119.002H257.926C270.589 119.002 280.867 106.958 280.867 92.1073C280.867 77.2569 270.589 65.2131 257.926 65.2131Z" fill="#263238"/>
<path opacity="0.6" d="M257.926 65.2131H221.953C209.277 65.2131 199.012 77.2569 199.012 92.1073C199.012 106.958 209.277 119.002 221.953 119.002H257.926C270.589 119.002 280.867 106.958 280.867 92.1073C280.867 77.2569 270.589 65.2131 257.926 65.2131Z" fill="white"/>
<path d="M214.178 58.5718H221.03C236.698 58.5718 249.387 73.5935 249.387 92.1072C249.387 110.621 236.698 125.629 221.03 125.629H214.178C198.524 125.629 185.822 110.621 185.822 92.1072C185.822 73.5935 198.524 58.5718 214.178 58.5718Z" fill="#263238"/>
<path opacity="0.2" d="M214.178 58.5718H221.03C236.698 58.5718 249.387 73.5935 249.387 92.1072C249.387 110.621 236.698 125.629 221.03 125.629H214.178C198.524 125.629 185.822 110.621 185.822 92.1072C185.822 73.5935 198.524 58.5718 214.178 58.5718Z" fill="white"/>
<path opacity="0.2" d="M214.178 125.643C229.839 125.643 242.535 110.628 242.535 92.1072C242.535 73.5861 229.839 58.5718 214.178 58.5718C198.517 58.5718 185.822 73.5861 185.822 92.1072C185.822 110.628 198.517 125.643 214.178 125.643Z" fill="white"/>
<path d="M152.484 66.8864L160.667 61.3389L183.555 61.7606L210.462 59.033C210.462 59.033 221.281 64.172 228.647 71.1558C228.647 71.1558 236.922 85.9535 232.784 111.253L222.664 126.789L207.023 127.514L188.773 125.748L176.782 105.982L151.39 84.7939L152.484 66.8864Z" fill="#263238"/>
<path opacity="0.2" d="M232.784 111.266L222.664 126.789L207.023 127.514L188.773 125.748L176.795 105.982L151.39 84.7939L152.55 66.8864L160.719 61.3521L183.608 61.7606L210.515 59.033C210.515 59.033 221.333 64.172 228.699 71.1558C228.647 71.1558 236.922 85.9535 232.784 111.266Z" fill="white"/>
<path opacity="0.2" d="M232.784 111.266L222.664 126.789L215.088 114.06L215.786 97.9972L192.647 100.066L181.578 105.271L186.401 118.158L196.31 116.55L222.664 126.789L188.773 125.748L176.782 105.982L153.182 86.6519L173.58 81.6446L195.665 95.0061H216.748L206.206 81.6183L210.581 59.033C210.581 59.033 221.399 64.172 228.765 71.1558C228.647 71.1558 236.922 85.9535 232.784 111.266Z" fill="black"/>
<path d="M125.3 78.2845C124.535 76.7824 124.364 68.3886 125.194 67.3476C126.024 66.3067 143.365 58.8749 158.268 61.4444L163.605 76.5188L153.986 83.753L138.727 85.5319L125.3 78.2845Z" fill="#263238"/>
<path opacity="0.4" d="M125.3 78.2845C124.535 76.7824 124.364 68.3886 125.194 67.3476C126.024 66.3067 143.365 58.8749 158.268 61.4444L163.605 76.5188L153.986 83.753L138.727 85.5319L125.3 78.2845Z" fill="white"/>
<path opacity="0.2" d="M163.605 76.5189L153.986 83.753L138.727 85.5319L125.3 78.2846C124.535 76.7824 124.364 68.3887 125.194 67.3477C125.194 67.3477 136.474 66.3858 138.648 67.3477C140.822 68.3096 151.324 80.3929 151.324 80.3929L163.605 76.5189Z" fill="black"/>
<path d="M134.26 68.6389L117.591 77.6388L119.304 120.108C119.304 120.108 129.279 119.673 132.745 117.064C136.21 114.455 145.395 80.4587 145.395 80.4587L134.26 68.6389Z" fill="#263238"/>
<path opacity="0.6" d="M145.421 80.4587C145.421 80.4587 136.197 114.468 132.771 117.077C129.345 119.687 119.937 120.082 119.344 120.108L117.631 77.6256L134.26 68.6389L145.421 80.4587Z" fill="white"/>
<path opacity="0.2" d="M145.421 80.4586C145.421 80.4586 136.197 114.468 132.771 117.077C129.345 119.686 119.937 120.082 119.344 120.108C127.131 117.644 128.858 113.414 128.858 113.414L134.286 68.6125L145.421 80.4586Z" fill="black"/>
<path d="M179.47 140.691L179.075 135.631L193.556 118.356L209.646 115.852L220.885 128.436L201.12 146.607L189.155 150.56L179.47 140.691Z" fill="#263238"/>
<path opacity="0.4" d="M220.885 128.449L201.12 146.607L189.155 150.56L179.47 140.691L179.075 135.618L193.57 118.343L209.672 115.865L220.885 128.449Z" fill="white"/>
<path opacity="0.2" d="M220.885 128.449L201.12 146.607L189.155 150.56L179.47 140.691L179.075 135.618L194.294 133.615L209.659 115.865L220.885 128.449Z" fill="black"/>
<path d="M155.172 159.889C154.935 151.311 176.73 138.912 176.73 138.912L193.557 137.594L198.511 149.822L168.982 161.681L155.172 159.889Z" fill="#263238"/>
<path opacity="0.6" d="M198.511 149.822L168.968 161.682L155.172 159.889C154.921 151.311 176.729 138.925 176.729 138.925L193.556 137.607L198.511 149.822Z" fill="white"/>
<path opacity="0.2" d="M198.511 149.822L168.968 161.681L155.172 159.889L168.652 159.771C168.652 159.771 172.605 145.79 193.556 137.594L198.511 149.822Z" fill="black"/>
<path d="M145.685 78.3901C145.685 78.3901 134.26 82.4486 132.705 92.8848C128.858 87.3637 121.241 81.1178 106.272 80.0504C106.272 80.0504 111.306 106.194 136.579 101.845C136.523 101.401 136.44 100.961 136.329 100.527C140.15 98.4059 146.791 92.4631 145.685 78.3901Z" fill="#D3FE3D"/>
<path opacity="0.2" d="M145.685 78.3901C145.685 78.3901 134.26 82.4486 132.705 92.8848C128.858 87.3637 121.241 81.1178 106.272 80.0504C106.272 80.0504 111.306 106.194 136.579 101.845C136.523 101.401 136.44 100.961 136.329 100.527C140.15 98.4059 146.791 92.4631 145.685 78.3901Z" fill="black"/>
<path d="M173.027 153.999C161.523 166.346 156.002 162.208 156.002 162.208C156.002 162.208 151.298 169.759 137.146 167.743C128.528 166.517 118.25 158.782 110.976 148.952C102.517 137.554 98.1025 123.31 105.007 113.23C116.524 96.4158 133.931 100.659 133.931 100.659C133.931 100.659 144.986 88.8918 160.917 91.6589C161.642 91.7799 162.356 91.9606 163.052 92.1992C181.486 98.4978 184.148 142.087 173.027 153.999Z" fill="#E34133"/>
<path opacity="0.2" d="M161.563 142.219C150.046 154.553 144.538 150.415 144.538 150.415C144.538 150.415 139.834 157.965 125.669 155.963C121.004 155.304 115.865 152.734 110.976 148.952C102.517 137.554 98.1025 123.31 105.007 113.23C116.524 96.4158 133.931 100.659 133.931 100.659C133.931 100.659 144.986 88.8918 160.917 91.6589C161.642 91.7799 162.356 91.9606 163.052 92.1992C170.457 107.827 169.68 133.509 161.563 142.219Z" fill="white"/>
<path d="M168.138 61.7604L172.315 57.188C172.315 57.188 188.378 52.8133 195.283 53.7357C199.415 54.2821 203.402 55.6246 207.023 57.6888L204.665 78.7719C204.665 78.7719 183.582 83.0149 179.866 81.0779C176.15 79.1409 168.138 61.7604 168.138 61.7604Z" fill="#263238"/>
<path opacity="0.4" d="M207.023 57.6888L204.665 78.772C204.665 78.772 183.582 83.0018 179.879 81.0648C176.176 79.1278 168.138 61.7078 168.138 61.7078L172.315 57.1354C172.315 57.1354 188.378 52.7738 195.283 53.683C199.419 54.2458 203.406 55.6062 207.023 57.6888Z" fill="white"/>
<path opacity="0.2" d="M204.665 78.8249C204.665 78.8249 183.582 83.0547 179.879 81.1177C176.176 79.1807 168.138 61.7607 168.138 61.7607C168.138 61.7607 182.396 59.5865 186.085 61.3786C189.775 63.1707 194.36 77.046 194.36 77.046L204.665 78.8249Z" fill="black"/>
<path d="M150.072 112.624L163.605 61.7473H183.555L188.826 76.3738C188.826 76.3738 171.841 109.369 165.7 112.624C159.56 115.878 150.072 112.624 150.072 112.624Z" fill="#263238"/>
<path opacity="0.6" d="M188.786 76.4265C188.786 76.4265 171.841 109.369 165.7 112.624C159.56 115.878 150.085 112.624 150.085 112.624L163.618 61.7605H183.555L188.786 76.4265Z" fill="white"/>
<path opacity="0.2" d="M188.786 76.4265C188.786 76.4265 171.841 109.369 165.7 112.624C159.56 115.878 150.085 112.624 150.085 112.624C161.76 113.006 163.763 108.499 163.763 108.499L183.529 61.7605L188.786 76.4265Z" fill="black"/>
<path d="M79.4702 7.4536e-06H117.328C118.858 -0.00172423 120.375 0.298299 121.789 0.882912C123.204 1.46753 124.49 2.32527 125.573 3.4071C126.656 4.48893 127.515 5.77363 128.101 7.18774C128.688 8.60186 128.989 10.1176 128.989 11.6484V44.5909C128.989 47.6837 127.761 50.6499 125.574 52.8369C123.387 55.0239 120.42 56.2525 117.328 56.2525H114.218V66.6491L106.312 56.2525H79.4702C77.9394 56.2525 76.4236 55.9508 75.0095 55.3645C73.5954 54.7783 72.3107 53.9191 71.2289 52.8361C70.147 51.753 69.2893 50.4674 68.7047 49.0526C68.1201 47.6378 67.8201 46.1217 67.8218 44.5909V11.6484C67.8218 8.55908 69.049 5.59626 71.2335 3.41175C73.418 1.22725 76.3809 7.4536e-06 79.4702 7.4536e-06Z" fill="#4D61F4"/>
<path opacity="0.7" d="M79.4702 7.4536e-06H117.328C118.858 -0.00172423 120.375 0.298299 121.789 0.882912C123.204 1.46753 124.49 2.32527 125.573 3.4071C126.656 4.48893 127.515 5.77363 128.101 7.18774C128.688 8.60186 128.989 10.1176 128.989 11.6484V44.5909C128.989 47.6837 127.761 50.6499 125.574 52.8369C123.387 55.0239 120.42 56.2525 117.328 56.2525H114.218V66.6491L106.312 56.2525H79.4702C77.9394 56.2525 76.4236 55.9508 75.0095 55.3645C73.5954 54.7783 72.3107 53.9191 71.2289 52.8361C70.147 51.753 69.2893 50.4674 68.7047 49.0526C68.1201 47.6378 67.8201 46.1217 67.8218 44.5909V11.6484C67.8218 8.55908 69.049 5.59626 71.2335 3.41175C73.418 1.22725 76.3809 7.4536e-06 79.4702 7.4536e-06Z" fill="white"/>
<path d="M98.4055 21.4125C90.8023 13.5063 82.2769 16.761 82.2769 24.4564C82.2769 32.1517 98.4055 42.8119 98.4055 42.8119C98.4055 42.8119 114.495 32.1649 114.495 24.4564C114.495 16.7479 106.009 13.5063 98.4055 21.4125Z" fill="#4D61F4"/>
</svg>
